<?xml version="1.0" encoding="UTF-8"?>
<svg version="1.1" xmlns="http://www.w3.org/2000/svg" width="270" height="270">
<path d="M0 0 C89.1 0 178.2 0 270 0 C270 89.1 270 178.2 270 270 C180.9 270 91.8 270 0 270 C0 180.9 0 91.8 0 0 Z " fill="#FEFEFE" transform="translate(0,0)"/>
<path d="M0 0 C0.69480972 -0.00189835 1.38961945 -0.00379669 2.10548401 -0.00575256 C4.39734257 -0.00945059 6.68888259 0.00123142 8.98071289 0.01245117 C10.57727522 0.01364385 12.17383825 0.01409595 13.770401 0.01383972 C17.11520792 0.01540301 20.45990757 0.02367976 23.8046875 0.03710938 C28.08634044 0.05408514 32.36787541 0.05792396 36.64955807 0.05716419 C39.94642762 0.05743652 43.24327152 0.0629281 46.54013252 0.07016563 C48.11854419 0.07334196 49.69695877 0.07531728 51.27537346 0.07605934 C53.48441355 0.0782347 55.6933303 0.08700505 57.90234375 0.09765625 C59.78620033 0.10337395 59.78620033 0.10337395 61.70811462 0.10920715 C65.01586914 0.24291992 65.01586914 0.24291992 67.83546448 0.8144989 C70.05030449 1.48039763 70.05030449 1.48039763 72.01586914 0.24291992 C73.94276268 0.12607741 75.87366102 0.07319467 77.80395508 0.05004883 C79.62790802 0.02595444 79.62790802 0.02595444 81.4887085 0.00137329 C82.82587986 -0.01012537 84.16305914 -0.020732 85.50024414 -0.03051758 C86.17598732 -0.03584126 86.8517305 -0.04116493 87.54795074 -0.04664993 C91.13669194 -0.07341096 94.7253983 -0.09276133 98.31420898 -0.10717773 C101.26082075 -0.12041984 104.20672389 -0.14808294 107.15307617 -0.18920898 C110.72815041 -0.2391016 114.30259099 -0.26336894 117.87799835 -0.27040482 C119.87737118 -0.28022116 121.87657861 -0.31433953 123.87567139 -0.34921265 C135.25741369 -0.32334048 146.13242984 2.22366526 155.26586914 9.36791992 C156.13727539 10.03049805 157.00868164 10.69307617 157.90649414 11.37573242 C160.01586914 13.24291992 160.01586914 13.24291992 162.01586914 16.24291992 C162.10223633 15.57905273 162.18860352 14.91518555 162.27758789 14.23120117 C163.20801477 8.38402306 164.13064294 5.02897023 169.01586914 1.24291992 C172.07753503 -0.28791302 175.29480836 0.03835851 178.65649414 0.00463867 C179.41629578 -0.00343307 180.17609741 -0.01150482 180.95892334 -0.01982117 C182.56951619 -0.03366146 184.18013836 -0.04438387 185.79077148 -0.05224609 C188.24268024 -0.06941768 190.69322574 -0.11329641 193.14477539 -0.1574707 C194.71117174 -0.16760163 196.27757955 -0.17611649 197.84399414 -0.18286133 C198.57233459 -0.20036942 199.30067505 -0.2178775 200.05108643 -0.23591614 C205.1845795 -0.21427013 208.11692947 0.92692781 212.01586914 4.24291992 C214.58071213 7.9162298 214.28459755 11.82585115 214.24291992 16.13256836 C214.24321198 16.92319168 214.24350403 17.713815 214.24380493 18.52839661 C214.24241381 21.13647512 214.22686293 23.74426643 214.21118164 26.35229492 C214.20745073 28.16261641 214.20460413 29.97293993 214.2026062 31.78326416 C214.19497586 36.54426667 214.17533248 41.30514684 214.15319824 46.06610107 C214.13272694 50.92580511 214.12360173 55.78552894 214.11352539 60.64526367 C214.09208605 70.17786946 214.05795729 79.71038451 214.01586914 89.24291992 C214.83265137 89.22197266 215.64943359 89.20102539 216.4909668 89.17944336 C220.20747469 89.09606863 223.92378547 89.04419004 227.64086914 88.99291992 C228.92606445 88.9594043 230.21125977 88.92588867 231.53540039 88.89135742 C242.20356331 88.78080651 242.20356331 88.78080651 245.78930664 91.00854492 C250.97509556 96.21252959 250.30966871 101.34018853 250.33813477 108.36987305 C250.33595947 109.07764893 250.33378418 109.7854248 250.33154297 110.51464844 C250.32838437 112.67003008 250.35185341 114.82403606 250.37719727 116.97924805 C250.3794707 118.35750153 250.38017355 119.73575869 250.37915039 121.11401367 C250.38362183 122.98464478 250.38362183 122.98464478 250.38818359 124.89306641 C249.98273155 128.54107135 249.28423448 130.38077188 247.01586914 133.24291992 C243.46262834 135.6218461 240.23086251 135.50216352 236.03173828 135.51757812 C235.33692856 135.52268906 234.64211884 135.52779999 233.92625427 135.5330658 C231.63442316 135.54694112 229.34289346 135.54600664 227.05102539 135.54370117 C225.45446155 135.54758922 223.85789875 135.55192412 222.26133728 135.5566864 C218.91654099 135.56414415 215.57185026 135.56386057 212.22705078 135.55859375 C207.94525921 135.55279944 203.66390026 135.56973106 199.38218021 135.59293842 C196.08529645 135.60768538 192.78851666 135.60854617 189.49160576 135.6054287 C187.9131834 135.60594142 186.33475514 135.61116998 184.75636482 135.62124062 C182.54709048 135.63360685 180.33865589 135.62681306 178.12939453 135.61523438 C176.87349014 135.6158638 175.61758575 135.61649323 174.32362366 135.61714172 C169.82604227 135.10830922 167.20999467 133.59390439 164.23535156 130.22851562 C162.38418146 125.69639167 162.53508652 121.32572925 162.50415039 116.47338867 C162.48619919 115.4372493 162.46824799 114.40110992 162.44975281 113.33357239 C162.39568228 110.03256264 162.36176391 106.73169724 162.32836914 103.43041992 C162.29519326 101.18886339 162.26070336 98.9473259 162.22485352 96.70581055 C162.13995773 91.21830978 162.071594 85.73079026 162.01586914 80.24291992 C161.54608643 80.72589035 161.07630371 81.20886078 160.59228516 81.70646667 C159.97023193 82.33877701 159.34817871 82.97108734 158.70727539 83.62255859 C158.09311768 84.24990402 157.47895996 84.87724945 156.84619141 85.52360535 C154.45405117 87.77066405 151.97597259 89.15803066 149.01586914 90.55541992 C148.04649414 91.02592773 147.07711914 91.49643555 146.07836914 91.98120117 C138.87333919 94.94959999 132.76960454 95.50460627 125.07836914 95.36791992 C124.10834961 95.35889648 123.13833008 95.34987305 122.13891602 95.34057617 C119.76430507 95.31718099 117.39022139 95.28440168 115.01586914 95.24291992 C115.03681641 96.18087402 115.05776367 97.11882812 115.0793457 98.08520508 C115.14776287 101.58530617 115.197785 105.08469058 115.2355957 108.58520508 C115.25563705 110.09638728 115.28287819 111.60749265 115.31762695 113.1184082 C115.36648023 115.29812635 115.38891138 117.47681423 115.40649414 119.65698242 C115.42744141 120.96618652 115.44838867 122.27539062 115.4699707 123.62426758 C114.93519222 127.88581952 113.76171739 129.97236043 111.01586914 133.24291992 C107.51478707 135.94372688 103.38983933 135.54900659 99.14477539 135.54370117 C98.38543198 135.5479863 97.62608856 135.55227142 96.84373474 135.5566864 C95.24088537 135.56241825 93.63800998 135.5629384 92.03515625 135.55859375 C89.59012222 135.55543511 87.14630045 135.57890098 84.70141602 135.60424805 C83.14087066 135.60652139 81.58032207 135.60722437 80.01977539 135.60620117 C78.92893394 135.62001579 78.92893394 135.62001579 77.8160553 135.6341095 C73.38683957 135.59397692 70.44121504 135.12827104 67.01586914 132.24291992 C64.43873694 127.96155514 64.67148362 123.30030075 64.60180664 118.44213867 C64.58244049 117.6057637 64.56307434 116.76938873 64.54312134 115.90766907 C64.48356723 113.24868823 64.4370374 110.58966352 64.39086914 107.93041992 C64.35266708 106.12245883 64.31361406 104.3145155 64.27368164 102.5065918 C64.17788569 98.08551294 64.09376583 93.66434891 64.01586914 89.24291992 C63.47220703 89.5688916 62.92854492 89.89486328 62.3684082 90.23071289 C59.53166045 91.45125629 57.457604 91.47102348 54.37524414 91.43823242 C53.30532227 91.43178711 52.23540039 91.4253418 51.13305664 91.41870117 C49.46629883 91.39356445 49.46629883 91.39356445 47.76586914 91.36791992 C46.0759082 91.35438477 46.0759082 91.35438477 44.35180664 91.34057617 C41.57294549 91.3170265 38.79451524 91.28413672 36.01586914 91.24291992 C36.03681641 92.26651611 36.05776367 93.2901123 36.0793457 94.34472656 C36.15211706 98.16701088 36.19780256 101.98923479 36.2355957 105.81201172 C36.25562711 107.46185629 36.28286056 109.11163062 36.31762695 110.76123047 C36.36652272 113.14202266 36.38892194 115.52187092 36.40649414 117.90307617 C36.42713928 118.63252945 36.44778442 119.36198273 36.46905518 120.11354065 C36.47141208 125.57585615 35.21409764 128.78273136 32.01586914 133.24291992 C28.58936769 136.00800809 24.3666115 135.54897756 20.14477539 135.54370117 C19.38543198 135.5479863 18.62608856 135.55227142 17.84373474 135.5566864 C16.24088537 135.56241825 14.63800998 135.5629384 13.03515625 135.55859375 C10.59012222 135.55543511 8.14630045 135.57890098 5.70141602 135.60424805 C4.14087066 135.60652139 2.58032207 135.60722437 1.01977539 135.60620117 C-0.07106606 135.62001579 -0.07106606 135.62001579 -1.1839447 135.6341095 C-5.63635203 135.59376678 -8.51138397 135.08461067 -11.98413086 132.24291992 C-16.09777685 127.3937038 -15.41316352 121.86927185 -15.38818359 115.84667969 C-15.39504684 114.69491241 -15.4019101 113.54314514 -15.40898132 112.35647583 C-15.42728353 108.54896723 -15.42340676 104.74186933 -15.41772461 100.93432617 C-15.42228472 98.28783534 -15.42758978 95.6413457 -15.43360901 92.99485779 C-15.44363461 87.44754102 -15.44034294 81.90034085 -15.43017578 76.35302734 C-15.4186962 69.94826461 -15.43276902 63.54392069 -15.45957226 57.13921314 C-15.48442578 50.96847551 -15.48690306 44.79793069 -15.4804554 38.62714958 C-15.48030195 36.00568889 -15.48636529 33.38422023 -15.49874687 30.76278877 C-15.51361837 27.09772685 -15.50300654 23.43358766 -15.48583984 19.76855469 C-15.49550781 18.68524368 -15.50517578 17.60193268 -15.51513672 16.48579407 C-15.45598778 10.4572665 -15.14615041 6.75387118 -10.98413086 2.24291992 C-7.58487486 -0.3059572 -4.14648266 -0.00470781 0 0 Z " fill="#300636" transform="translate(17.984130859375,67.757080078125)"/>
<path d="M0 0 C9.301875 -0.103125 18.60375 -0.20625 28.1875 -0.3125 C31.09715576 -0.35802002 34.00681152 -0.40354004 37.00463867 -0.45043945 C39.35073703 -0.46506354 41.69684823 -0.47779964 44.04296875 -0.48828125 C45.2287854 -0.51386108 46.41460205 -0.53944092 47.63635254 -0.5657959 C59.44404636 -0.57186295 69.66159782 2.57941431 78.19921875 10.9765625 C86.12211801 19.87908271 87.6838382 31.63636602 87.41015625 43.25 C86.36894741 52.76962368 82.54200916 61.86757636 75 68 C71.77481954 69.96842 68.48704016 71.55360713 65 73 C64.27031006 73.34675781 63.54062012 73.69351563 62.78881836 74.05078125 C59.37420578 75.21299903 56.55414327 75.22599271 52.94921875 75.1953125 C51.74354248 75.19031738 50.53786621 75.18532227 49.2956543 75.18017578 C47.01461792 75.15286377 47.01461792 75.15286377 44.6875 75.125 C37.4171875 75.063125 37.4171875 75.063125 30 75 C30 88.2 30 101.4 30 115 C20.1 115 10.2 115 0 115 C0 77.05 0 39.1 0 0 Z " fill="#00FEFE" transform="translate(93,78)"/>
<path d="M0 0 C22.44 0 44.88 0 68 0 C68 8.58 68 17.16 68 26 C55.79 26 43.58 26 31 26 C31 32.27 31 38.54 31 45 C41.56 45 52.12 45 63 45 C63 53.58 63 62.16 63 71 C52.44 71 41.88 71 31 71 C31 85.52 31 100.04 31 115 C20.77 115 10.54 115 0 115 C0 77.05 0 39.1 0 0 Z " fill="#FBFAFB" transform="translate(13,78)"/>
<path d="M0 0 C9.57 0 19.14 0 29 0 C29 29.7 29 59.4 29 90 C40.88 90 52.76 90 65 90 C65 98.25 65 106.5 65 115 C43.55 115 22.1 115 0 115 C0 77.05 0 39.1 0 0 Z " fill="#00FF85" transform="translate(192,78)"/>
<path d="M0 0 C2.825625 -0.0825 5.65125 -0.165 8.5625 -0.25 C9.43849854 -0.28641602 10.31449707 -0.32283203 11.21704102 -0.36035156 C17.00127055 -0.44135037 20.24674405 0.68619656 25 4 C28.65057119 7.88609191 28.49948227 12.24450836 28.35546875 17.33984375 C27.72315391 22.07178229 25.42317756 24.74932881 21.9375 27.8125 C18.92420017 29.65936119 16.44477382 30.12364492 12.98828125 30.09765625 C11.96408081 30.09390991 11.96408081 30.09390991 10.91918945 30.09008789 C10.05898193 30.08098389 9.19877441 30.07187988 8.3125 30.0625 C4.1978125 30.0315625 4.1978125 30.0315625 0 30 C0 20.1 0 10.2 0 0 Z " fill="#310A3A" transform="translate(122,101)"/>
<path d="M0 0 C5.875 0.875 5.875 0.875 7 2 C6.71269945 4.33944736 6.38063221 6.6739143 6 9 C4.02 9.33 2.04 9.66 0 10 C0 6.7 0 3.4 0 0 Z " fill="#F2EFF2" transform="translate(133,111)"/>
</svg>
