<?xml version="1.0" encoding="UTF-8"?>
<svg version="1.1" xmlns="http://www.w3.org/2000/svg" width="270" height="270">
<path d="M0 0 C1.07388474 -0.00284752 1.07388474 -0.00284752 2.16946411 -0.00575256 C4.53105697 -0.0094509 6.89234081 0.00123082 9.25390625 0.01245117 C10.89770471 0.01364369 12.54150386 0.01409598 14.18530273 0.01383972 C17.62846144 0.01540299 21.07151594 0.02368046 24.51464844 0.03710938 C28.92643539 0.05409892 33.33810787 0.05792358 37.74992371 0.05716419 C41.14368786 0.05743623 44.53742703 0.06292286 47.93118286 0.07016563 C49.55786958 0.07334597 51.18455912 0.07531823 52.81124878 0.07605934 C55.0851523 0.07822964 57.35893499 0.0869888 59.6328125 0.09765625 C60.92646729 0.10146805 62.22012207 0.10527985 63.55297852 0.10920715 C66.21078657 0.2181058 68.2770111 0.59380669 70.81640625 1.24291992 C71.47640625 0.91291992 72.13640625 0.58291992 72.81640625 0.24291992 C74.82057698 0.13094567 76.82847497 0.08360618 78.83569336 0.06591797 C80.73423317 0.04666512 80.73423317 0.04666512 82.67112732 0.02702332 C84.06199755 0.01885044 85.45287223 0.01140776 86.84375 0.00463867 C87.54530275 0.00056314 88.24685551 -0.00351238 88.96966743 -0.00771141 C92.6911197 -0.02859071 96.41253501 -0.0428779 100.1340332 -0.05224609 C103.95353665 -0.06324604 107.77244705 -0.09756447 111.59174252 -0.13741779 C114.54743928 -0.16375952 117.5029994 -0.17195387 120.45880318 -0.17552757 C121.86483272 -0.18035742 123.27085767 -0.19186688 124.67677116 -0.21056557 C138.24988331 -0.37969993 149.22474075 2.53657826 159.484375 11.73901367 C160.63046054 12.87225792 161.73048002 14.05190405 162.81640625 15.24291992 C162.96335938 14.2297168 162.96335938 14.2297168 163.11328125 13.19604492 C164.61020374 4.26612797 164.61020374 4.26612797 168.81640625 1.24291992 C171.99653688 -0.34714539 175.43611282 0.05874915 178.9296875 0.03979492 C179.7362529 0.03409485 180.5428183 0.02839478 181.37382507 0.02252197 C183.08278083 0.01306797 184.79175485 0.0065364 186.50073242 0.00268555 C189.10823666 -0.00700328 191.71494703 -0.03801507 194.32226562 -0.06958008 C195.98306824 -0.07611193 197.64387649 -0.08136168 199.3046875 -0.08520508 C200.0819368 -0.09755188 200.8591861 -0.10989868 201.6599884 -0.12261963 C206.22078114 -0.1039703 209.25770295 0.30230938 212.81640625 3.24291992 C215.38761324 6.9484881 215.084878 10.89030435 215.04345703 15.22436523 C215.04374908 16.02474213 215.04404114 16.82511902 215.04434204 17.64974976 C215.0429508 20.29029248 215.02739933 22.93055161 215.01171875 25.57104492 C215.00798789 27.40378668 215.00514126 29.23653044 215.00314331 31.0692749 C214.99551262 35.88946046 214.97586894 40.70952521 214.95373535 45.52966309 C214.9332648 50.44969041 214.924139 55.36973728 214.9140625 60.28979492 C214.89262255 69.94088963 214.85849337 79.59189472 214.81640625 89.24291992 C215.66871826 89.22720947 216.52103027 89.21149902 217.39916992 89.1953125 C220.57671851 89.14403031 223.75405538 89.1064951 226.93188477 89.078125 C228.30435142 89.0630856 229.67677039 89.0426486 231.04907227 89.01660156 C233.02729281 88.98000771 235.00587139 88.96475294 236.984375 88.94995117 C238.17313232 88.93424072 239.36188965 88.91853027 240.58666992 88.90234375 C244.13123249 89.2761184 245.97170132 90.14262865 248.81640625 92.24291992 C252.4173371 97.0765529 251.14924378 104.17044221 251.13208008 109.94189453 C251.12892147 112.16968778 251.15238965 114.3961502 251.17773438 116.6237793 C251.18000779 118.04760576 251.18071067 119.47143577 251.1796875 120.89526367 C251.18415894 122.82873657 251.18415894 122.82873657 251.1887207 124.80126953 C250.78826345 128.50307016 250.1249773 130.34831444 247.81640625 133.24291992 C244.24273756 135.64193048 240.9647632 135.50228758 236.74047852 135.51757812 C236.03591522 135.52268906 235.33135193 135.52779999 234.60543823 135.5330658 C232.28114275 135.54694256 229.95714443 135.54600653 227.6328125 135.54370117 C226.01382843 135.54758914 224.39484538 135.55192402 222.77586365 135.5566864 C219.38398938 135.56414446 215.99221921 135.56386034 212.6003418 135.55859375 C208.25801842 135.55279938 203.91612161 135.56973109 199.57386875 135.59293842 C196.2306622 135.60768448 192.88755818 135.60854629 189.54432487 135.6054287 C187.94357394 135.60594146 186.3428172 135.61117085 184.74209785 135.62124062 C182.50169436 135.63360507 180.26211918 135.62681407 178.02172852 135.61523438 C176.74805923 135.6158638 175.47438995 135.61649323 174.16212463 135.61714172 C170.51871354 135.20962271 168.67360943 134.51159766 165.81640625 132.24291992 C163.8332428 129.34395682 163.55349632 126.94250405 163.49755859 123.47436523 C163.46775406 122.06335541 163.46775406 122.06335541 163.43734741 120.62384033 C163.4200206 119.1127066 163.4200206 119.1127066 163.40234375 117.57104492 C163.37329453 116.01471344 163.37329453 116.01471344 163.34365845 114.42694092 C163.28391783 111.115684 163.23749895 107.80439221 163.19140625 104.49291992 C163.15322143 102.24681108 163.1141694 100.0007168 163.07421875 97.75463867 C162.97822083 92.25086178 162.89315709 86.74699705 162.81640625 81.24291992 C162.23415283 81.78634033 161.65189941 82.32976074 161.05200195 82.88964844 C156.92498256 86.66414894 153.23657969 90.02759234 148.00390625 92.18041992 C147.11058594 92.56069336 146.21726563 92.9409668 145.296875 93.33276367 C141.19723842 94.83703977 137.77536711 95.36491415 133.39453125 95.34057617 C132.36972656 95.33735352 131.34492188 95.33413086 130.2890625 95.33081055 C129.22558594 95.32243164 128.16210938 95.31405273 127.06640625 95.30541992 C125.98746094 95.3009082 124.90851563 95.29639648 123.796875 95.29174805 C121.13666242 95.27997719 118.4765626 95.26353391 115.81640625 95.24291992 C115.83997192 96.70314575 115.83997192 96.70314575 115.86401367 98.19287109 C115.91846864 101.81762359 115.95281251 105.44234018 115.98120117 109.06738281 C115.99625247 110.633851 116.01669832 112.20027728 116.04272461 113.76660156 C116.07927058 116.02313599 116.09616886 118.27911145 116.109375 120.53588867 C116.12485886 121.23191696 116.14034271 121.92794525 116.15629578 122.64506531 C116.15779929 127.02641285 115.5886799 129.81167921 112.81640625 133.24291992 C109.26336638 135.97590849 105.02015929 135.54891097 100.7265625 135.54370117 C99.94502304 135.5479863 99.16348358 135.55227142 98.35826111 135.5566864 C96.708333 135.56241907 95.05837962 135.56293779 93.40844727 135.55859375 C90.89099794 135.55543509 88.37472591 135.57890028 85.85742188 135.60424805 C84.25130356 135.60652137 82.6451821 135.60722438 81.0390625 135.60620117 C80.28996109 135.61541092 79.54085968 135.62462067 78.76905823 135.6341095 C74.28126049 135.59459687 71.32478188 135.11348285 67.81640625 132.24291992 C64.96078194 128.59509016 65.46551059 123.97226782 65.40234375 119.53979492 C65.3829776 118.702005 65.36361145 117.86421509 65.34365845 117.0010376 C65.28399901 114.33176779 65.23753212 111.66245453 65.19140625 108.99291992 C65.15321389 107.18040138 65.11416143 105.36790074 65.07421875 103.55541992 C64.97830873 99.11806578 64.89422745 94.68062667 64.81640625 90.24291992 C63.82640625 90.73791992 63.82640625 90.73791992 62.81640625 91.24291992 C60.85704585 91.32802198 58.89477831 91.35009649 56.93359375 91.34057617 C55.18369141 91.33574219 55.18369141 91.33574219 53.3984375 91.33081055 C52.17511719 91.32243164 50.95179687 91.31405273 49.69140625 91.30541992 C48.46035156 91.3009082 47.22929688 91.29639648 45.9609375 91.29174805 C42.91271233 91.27993322 39.86458311 91.2634602 36.81640625 91.24291992 C36.8321167 92.33757568 36.84782715 93.43223145 36.86401367 94.56005859 C36.91842735 98.63208623 36.95279781 102.70408189 36.98120117 106.77636719 C36.99626178 108.53683888 37.01671451 110.29727322 37.04272461 112.05761719 C37.07922854 114.59213495 37.09615979 117.12615544 37.109375 119.66088867 C37.12485886 120.44441208 37.14034271 121.22793549 37.15629578 122.03520203 C37.15769857 126.61882736 36.77959005 129.66896851 33.81640625 133.24291992 C30.22679288 136.02666955 25.85365705 135.54882515 21.5078125 135.54370117 C20.704077 135.5479863 19.90034149 135.55227142 19.07225037 135.5566864 C17.37524353 135.56241985 15.67821213 135.56293722 13.98120117 135.55859375 C11.39133581 135.55543508 8.80261474 135.57889961 6.21289062 135.60424805 C4.56119935 135.60652135 2.90950502 135.60722439 1.2578125 135.60620117 C0.48683731 135.61541092 -0.28413788 135.62462067 -1.07847595 135.6341095 C-5.61612406 135.59525746 -8.64030136 135.16094968 -12.18359375 132.24291992 C-14.1000584 129.16072304 -14.43591245 126.80180842 -14.44429016 123.20191956 C-14.45137497 122.18553406 -14.45845978 121.16914856 -14.46575928 120.1219635 C-14.46328186 119.01276047 -14.46080444 117.90355743 -14.45825195 116.76074219 C-14.46336288 115.58800751 -14.46847382 114.41527283 -14.47373962 113.20700073 C-14.4852566 109.99414616 -14.48770942 106.78145161 -14.48517632 103.56858182 C-14.48410594 100.88468828 -14.4889917 98.20081849 -14.49378175 95.51693004 C-14.50487353 89.18428292 -14.5053162 82.85169511 -14.49926758 76.51904297 C-14.49322715 69.98995498 -14.50554115 63.46108245 -14.52683765 56.93203121 C-14.54446066 51.32256306 -14.55045391 45.71316345 -14.5471999 40.10366863 C-14.54538801 36.75505809 -14.54801371 33.40660126 -14.56191444 30.05801582 C-14.57422881 26.3233383 -14.5675167 22.58916149 -14.5559082 18.85449219 C-14.56355194 17.74731339 -14.57119568 16.64013458 -14.57907104 15.49940491 C-14.51304149 5.90506823 -14.51304149 5.90506823 -11.18359375 2.24291992 C-7.73581908 -0.32986875 -4.18624735 -0.00461134 0 0 Z M115.81640625 43.24291992 C115.81640625 46.21291992 115.81640625 49.18291992 115.81640625 52.24291992 C117.79640625 51.91291992 119.77640625 51.58291992 121.81640625 51.24291992 C121.81640625 49.26291992 121.81640625 47.28291992 121.81640625 45.24291992 C119.83640625 44.58291992 117.85640625 43.92291992 115.81640625 43.24291992 Z " fill="#2D0333" transform="translate(17.18359375,67.757080078125)"/>
<path d="M0 0 C65.5409375 0 65.5409375 0 75.22265625 8.1875 C83.80681274 16.941453 86.96981503 26.30692118 87.4375 38.4375 C87.15755513 48.58854446 84.42485231 58.75704831 77 66 C66.82563352 74.55349811 56.28132957 75.44465562 43.375 75.1875 C36.754375 75.0946875 36.754375 75.0946875 30 75 C30 88.2 30 101.4 30 115 C20.1 115 10.2 115 0 115 C0 77.05 0 39.1 0 0 Z M40 33 C40 35.97 40 38.94 40 42 C41.98 41.67 43.96 41.34 46 41 C46 39.02 46 37.04 46 35 C44.02 34.34 42.04 33.68 40 33 Z " fill="#00FEFE" transform="translate(93,78)"/>
<path d="M0 0 C22.11 0 44.22 0 67 0 C67 8.58 67 17.16 67 26 C54.46 26 41.92 26 29 26 C29 32.27 29 38.54 29 45 C39.89 45 50.78 45 62 45 C62 53.58 62 62.16 62 71 C51.11 71 40.22 71 29 71 C29 85.52 29 100.04 29 115 C19.43 115 9.86 115 0 115 C0 77.05 0 39.1 0 0 Z " fill="#FFFFFF" transform="translate(14,78)"/>
<path d="M0 0 C9.57 0 19.14 0 29 0 C29 29.37 29 58.74 29 89 C41.21 89 53.42 89 66 89 C66 97.58 66 106.16 66 115 C44.22 115 22.44 115 0 115 C0 77.05 0 39.1 0 0 Z " fill="#00FD84" transform="translate(192,78)"/>
<path d="M0 0 C18.8006483 -0.58752026 18.8006483 -0.58752026 25 4 C27.9279076 7.11090183 28.21396135 9.80623915 28.375 13.9375 C28.22548444 18.31245523 27.53446106 21.32940122 25 25 C21.16163706 28.55048572 18.21344218 30.13694317 12.98828125 30.09765625 C11.96408081 30.09390991 11.96408081 30.09390991 10.91918945 30.09008789 C10.05898193 30.08098389 9.19877441 30.07187988 8.3125 30.0625 C4.1978125 30.0315625 4.1978125 30.0315625 0 30 C0 20.1 0 10.2 0 0 Z M11 10 C11 12.97 11 15.94 11 19 C12.98 18.67 14.96 18.34 17 18 C17 16.02 17 14.04 17 12 C15.02 11.34 13.04 10.68 11 10 Z " fill="#2C0536" transform="translate(122,101)"/>
</svg>
